<svg id="Capa_1" enable-background="new 0 0 512 512" height="512" viewBox="0 0 512 512" width="512" xmlns="http://www.w3.org/2000/svg"><g><path d="m376.006 466.001c-8.284 0-15-6.716-15-15v-75.031c-7.817-.515-14-7.019-14-14.967 0-8.284 6.716-15 15-15h14c8.284 0 15 6.716 15 15v89.999c0 8.283-6.716 14.999-15 14.999z" fill="#398ce9"/><path d="m135.998 466.001c-8.284 0-15-6.716-15-15v-75.031c-7.818-.515-14-7.019-14-14.967 0-8.284 6.716-15 15-15h14c8.284 0 15 6.716 15 15v89.999c0 8.283-6.716 14.999-15 14.999z" fill="#4bb6ff"/><path d="m256 466c-24.813 0-45-20.187-45-45v-29.999c0-24.813 20.187-45 45-45 24.814 0 45 20.187 45 45v29.999c0 24.813-20.186 45-45 45zm0-89.999c-8.271 0-15 6.729-15 15v29.999c0 8.271 6.729 15 15 15 8.272 0 15-6.729 15-15v-29.999c0-8.271-6.728-15-15-15z" fill="#4bb6ff"/><path d="m256 346.001v30c8.272 0 15 6.729 15 15v29.999c0 8.271-6.728 15-15 15v30c24.814 0 45-20.187 45-45v-29.999c0-24.812-20.186-45-45-45z" fill="#398ce9"/><path d="m376.006 165.997c-24.814 0-45-20.187-45-45v-29.999c0-24.813 20.186-45 45-45 24.813 0 45 20.187 45 45v29.999c0 24.813-20.186 45-45 45zm0-89.999c-8.272 0-15 6.729-15 15v29.999c0 8.271 6.728 15 15 15 8.271 0 15-6.729 15-15v-29.999c0-8.27-6.728-15-15-15z" fill="#398ce9"/><path d="m135.998 165.998c-8.284 0-15-6.716-15-15v-75.031c-7.818-.515-14-7.019-14-14.967 0-8.284 6.716-15 15-15h14c8.284 0 15 6.716 15 15v89.999c0 8.283-6.716 14.999-15 14.999z" fill="#4bb6ff"/><path d="m256 165.998c-8.284 0-15-6.716-15-15v-75.031c-7.818-.515-14-7.019-14-14.967 0-8.284 6.716-15 15-15h14c8.284 0 15 6.716 15 15v89.999c0 8.283-6.715 14.999-15 14.999z" fill="#4bb6ff"/><path d="m256 46v119.999c8.284 0 15-6.716 15-15v-89.999c0-8.285-6.715-15-15-15z" fill="#398ce9"/><path d="m376.006 316c-24.814 0-45-20.187-45-45v-29.999c0-24.813 20.186-45 45-45 24.813 0 45 20.187 45 45v29.999c0 24.813-20.186 45-45 45zm0-89.999c-8.272 0-15 6.729-15 15v29.999c0 8.271 6.728 15 15 15 8.271 0 15-6.729 15-15v-29.999c0-8.271-6.728-15-15-15z" fill="#398ce9"/><path d="m135.998 316c-24.813 0-45-20.187-45-45v-29.999c0-24.813 20.187-45 45-45s45 20.187 45 45v29.999c0 24.813-20.187 45-45 45zm0-89.999c-8.271 0-15 6.729-15 15v29.999c0 8.271 6.729 15 15 15s15-6.729 15-15v-29.999c0-8.271-6.729-15-15-15z" fill="#4bb6ff"/><path d="m256 316c-24.813 0-45-20.187-45-45v-29.999c0-24.813 20.187-45 45-45 24.814 0 45 20.187 45 45v29.999c0 24.813-20.186 45-45 45zm0-89.999c-8.271 0-15 6.729-15 15v29.999c0 8.271 6.729 15 15 15 8.272 0 15-6.729 15-15v-29.999c0-8.271-6.728-15-15-15z" fill="#4bb6ff"/><path d="m256 196.001v30c8.272 0 15 6.729 15 15v29.999c0 8.271-6.728 15-15 15v30c24.814 0 45-20.187 45-45v-29.999c0-24.813-20.186-45-45-45z" fill="#398ce9"/><path d="m75.001 512c-24.813 0-45-20.187-45-45v-181c0-8.271-6.729-15-15-15-8.284 0-15-6.716-15-15s6.716-15 15-15c8.271 0 15-6.729 15-15v-181c0-24.813 20.187-45 45-45 8.284 0 15 6.716 15 15s-6.716 15-15 15c-8.271 0-15 6.729-15 15v181c0 11.515-4.347 22.033-11.486 30 7.138 7.967 11.485 18.485 11.485 30v181c0 8.271 6.729 15 15 15 8.284 0 15 6.716 15 15s-6.715 15-14.999 15z" fill="#c2e541"/><path d="m437 512c-8.284 0-15-6.716-15-15s6.716-15 15-15c8.271 0 15-6.729 15-15v-181c0-11.515 4.347-22.033 11.486-30-7.14-7.967-11.486-18.485-11.486-30v-181c0-8.271-6.729-15-15-15-8.284 0-15-6.716-15-15s6.716-15 15-15c24.813 0 45 20.187 45 45v181c0 8.271 6.728 15 15 15 8.284 0 15 6.716 15 15s-6.716 15-15 15c-8.272 0-15 6.729-15 15v181c0 24.813-20.187 45-45 45z" fill="#a6d12d"/></g></svg>