<svg xmlns="http://www.w3.org/2000/svg" viewBox="0 0 512 512" xmlns:v="https://vecta.io/nano"><path d="M106.667 181.76l90.453 94.72c16.213-13.653 36.693-20.48 58.027-20.48 19.627 0 39.253 5.973 55.467 17.92l.853-.853 66.56-76.8c-11.093-11.947-17.92-27.307-19.627-43.52H118.613c-.853 11.093-5.12 20.48-11.946 29.013m90.453 114.347c-1.707 0-4.267-.853-5.973-2.56l-5.973-5.973-96.427-99.84c-3.413-3.413-3.413-8.533 0-11.947 8.533-8.533 12.8-18.773 12.8-30.72 0-5.12 3.413-8.533 8.533-8.533h256c5.12 0 8.533 3.413 8.533 8.533 0 17.067 7.68 33.28 20.48 45.227 3.413 3.413 4.267 8.533.853 11.947l-71.68 82.773-5.973 6.827c-3.413 3.413-8.533 3.413-11.947.853-14.507-12.8-31.573-19.627-50.347-19.627-19.627 0-38.4 7.68-52.907 21.333-1.705.853-3.412 1.707-5.972 1.707" fill="#d1d4d1"/><path d="M59.733 85.333C26.453 85.333 0 111.787 0 145.067S26.453 204.8 59.733 204.8s59.733-26.453 59.733-59.733-26.453-59.734-59.733-59.734" fill="#71c285"/><path d="M256 256a93.6 93.6 0 0 0-93.867 93.867A93.6 93.6 0 0 0 256 443.734a93.6 93.6 0 0 0 93.867-93.867A93.6 93.6 0 0 0 256 256" fill="#f29c1f"/><path d="M435.2 68.267c-42.667 0-76.8 34.133-76.8 76.8s34.133 76.8 76.8 76.8 76.8-34.133 76.8-76.8-34.133-76.8-76.8-76.8" fill="#cc66a1"/><path d="M42.667 153.6c-5.12 0-8.533-3.413-8.533-8.533 0-14.507 11.093-25.6 25.6-25.6 5.12 0 8.533 3.413 8.533 8.533s-3.413 8.533-8.533 8.533-8.533 3.413-8.533 8.533-3.414 8.534-8.534 8.534" fill="#599967"/><path d="M204.8 358.4c-5.12 0-8.533-3.413-8.533-8.533 0-33.28 26.453-59.733 59.733-59.733 5.12 0 8.533 3.413 8.533 8.533S261.12 307.2 256 307.2c-23.893 0-42.667 18.773-42.667 42.667 0 5.12-3.413 8.533-8.533 8.533" fill="#db8b28"/><path d="M401.067 153.6c-5.12 0-8.533-3.413-8.533-8.533 0-23.893 18.773-42.667 42.667-42.667 5.12 0 8.533 3.413 8.533 8.533s-3.413 8.533-8.533 8.533c-14.507 0-25.6 11.093-25.6 25.6-.001 5.121-3.414 8.534-8.534 8.534" fill="#ad508a"/></svg>