<svg xmlns="http://www.w3.org/2000/svg" width="256" height="256" xmlns:v="https://vecta.io/nano"><path d="M198.115 214.721H57.885c-30.834 0-55.921-25.087-55.921-55.921 0-28.708 21.745-52.434 49.627-55.568C59.089 67.452 90.761 41.282 128 41.282s68.914 26.173 76.409 61.951c27.882 3.134 49.627 26.86 49.627 55.568 0 30.834-25.087 55.921-55.921 55.921z" fill="#e86060"/><path d="M139.881 144.83l22.664-22.664a8.4 8.4 0 1 0-11.881-11.881L128 132.949l-22.664-22.664a8.4 8.4 0 1 0-11.881 11.881l22.664 22.664-22.664 22.664a8.4 8.4 0 0 0 0 11.881c1.638 1.641 3.792 2.462 5.94 2.462s4.302-.821 5.94-2.462L128 156.711l22.664 22.664c1.641 1.641 3.792 2.462 5.94 2.462s4.299-.821 5.94-2.462a8.4 8.4 0 0 0 0-11.881l-22.664-22.664z" fill="#fff"/></svg>