<svg id="Capa_1" enable-background="new 0 0 494.904 494.904" height="512" viewBox="0 0 494.904 494.904" width="512" xmlns="http://www.w3.org/2000/svg"><g><g><path d="m156.942 306.446c-27.24 3.441-114.621 6.719-114.621 6.719v113.818h405.341v-332.772h-.071c-58.699 103.666-177.72 197.969-290.649 212.235z" fill="#e2f1fe"/></g><path d="m482.654 88.362-10.928-29.617c-.458-2.385-2.062-4.504-4.471-5.511-.84-.351-1.708-.529-2.568-.567-.061-.004-.122-.006-.183-.008-.111-.002-.222-.002-.332.001-.837.009-1.687.15-2.517.457l-30.806 11.367c-3.886 1.434-5.874 5.747-4.44 9.632 1.433 3.886 5.746 5.875 9.632 4.44l14.133-5.215c-24.878 51.261-65.513 101.193-115.926 142.111-56.662 45.991-119.988 75.667-178.312 83.562-26.535 3.592-108.071 6.626-108.891 6.656-4.14.153-7.372 3.632-7.219 7.771.149 4.045 3.476 7.224 7.49 7.224.093 0 .187-.001.281-.005 3.38-.125 83.093-3.092 110.351-6.782 61.014-8.259 126.982-39.078 185.753-86.78 52.033-42.234 94.05-93.897 119.892-147.063l4.988 13.519c1.118 3.03 3.985 4.906 7.037 4.906.862 0 1.739-.15 2.595-.466 3.887-1.433 5.875-5.746 4.441-9.632z" fill="#0ed290"/><path d="m492.691 431.956-36.47-26.63c-.25-.18-.54-.36-.85-.51-.1-.05-.19-.09-.29-.14-3.39-1.39-7.4 1.06-7.4 4.99v5.4c-.373 5.193-4.249 5.495-5.92 5.92h-394.44v-346.041c0-3.332 2.701-6.033 6.034-6.033h5.276c4.4 0 6.94-4.99 4.35-8.54l-26.63-36.47c-2.15-2.95-6.54-2.95-8.68 0l-26.63 36.47c-2.59 3.55-.05 8.54 4.34 8.54h5.286c3.332 0 6.034 2.701 6.034 6.033v346.041 22.434.004c0 4.519 3.663 8.182 8.182 8.182h416.878c4.106.664 4.272 2.178 5.13 2.95.5.87.79 1.88.79 2.96v5.4c0 4.22 4.58 6.72 8.09 4.65.16-.1.31-.2.45-.3l36.47-26.63c2.95-2.15 2.95-6.54 0-8.68z" fill="#6c7fd8"/><path d="m492.691 440.636-36.47 26.63c-.14.1-.29.2-.45.3-3.51 2.07-8.09-.43-8.09-4.65v-5.4c0-1.08-.29-2.09-.79-2.96 2.17 1.5 4.1 2.52 6.02 2.35.82-.08 1.64-.37 2.39-.92l21.03-15.35c2.95-2.15 2.95-6.54 0-8.68l-21.03-15.35c-.75-.55-1.57-.84-2.39-.92-1.98-.17-3.64.16-5.68 1.66.29-.7.45-1.47.45-2.28v-5.4c0-3.93 4.01-6.38 7.4-4.99.1.05.19.09.29.14.31.15.6.33.85.51l36.47 26.63c2.95 2.14 2.95 6.53 0 8.68z" fill="#4f66d0"/><path d="m62.981 60.372-26.63-36.47c-2.15-2.95-6.54-2.95-8.68 0l-3.841 5.26 22.789 31.21c2.59 3.55.05 8.54-4.35 8.54h-3.435c-4.349 0-7.875 3.526-7.875 7.875l-.486 336.847c-.006 4.057 3.281 7.349 7.338 7.349h9.509v-346.038c0-3.332 2.701-6.033 6.033-6.033h5.277c4.401 0 6.941-4.99 4.351-8.54z" fill="#4f66d0"/><g fill="#678d98"><path d="m245.295 116.117 18.262-24.219c2.494-3.308 1.834-8.01-1.473-10.504-3.309-2.495-8.011-1.834-10.504 1.473l-15.709 20.833-15.825-20.852c-2.504-3.299-7.208-3.944-10.508-1.44-3.299 2.504-3.944 7.208-1.44 10.508l18.388 24.23-20.71 27.466c-2.494 3.308-1.834 8.01 1.473 10.504 2.098 1.646 7.044 2.511 10.504-1.473l18.157-24.08 19.107 25.177c2.38 2.163 5.205 4.561 10.508 1.44 3.299-2.504 3.944-7.208 1.44-10.508z"/><path d="m155.252 62.349c-1.077-.248-10.732-2.262-17.696 3.283-2.819 2.245-6.18 6.524-6.18 14.164v13.326h-2.795c-4.142 0-7.5 3.358-7.5 7.5s3.358 7.5 7.5 7.5h2.795v52.069c0 4.142 3.358 7.5 7.5 7.5s7.5-3.358 7.5-7.5v-52.069h6.096c4.142 0 7.5-3.358 7.5-7.5s-3.358-7.5-7.5-7.5h-6.096v-13.326c0-1.384.26-2.215.518-2.424.799-.649 3.369-.743 5.053-.392 4.02.89 8.01-1.623 8.934-5.641.928-4.037-1.592-8.061-5.629-8.99z"/><path d="m190.233 77.139c-3.846-1.539-8.21.334-9.749 4.179-.513 1.284-12.432 31.961-.283 77.531.895 3.355 3.927 5.57 7.242 5.57 3.848.077 8.424-4.039 7.252-9.434-10.759-40.356-.43-67.717-.274-68.121 1.521-3.84-.35-8.19-4.188-9.725z"/><path d="m292.803 79.103c-1.538-3.846-5.902-5.717-9.749-4.179-3.846 1.538-5.717 5.903-4.179 9.749.107.269 10.597 27.286-.283 68.097-1.067 4.002 1.313 8.112 5.315 9.179 3.065.823 7.592-.685 9.179-5.315 12.149-45.57.23-76.248-.283-77.531z"/></g></g></svg>