<svg id="Capa_1" enable-background="new 0 0 512 512" height="512" viewBox="0 0 512 512" width="512" xmlns="http://www.w3.org/2000/svg"><g><g fill="#0acefa"><path d="m91 71v70c0 13.785 11.215 25 25 25h39.95c13.785 0 25-11.215 25-25v-70c0-13.785-11.215-25-25-25h-39.95c-13.785 0-25 11.215-25 25zm30 5h29.95v60h-29.95z"/><path d="m156 196h-40c-13.785 0-25 11.215-25 25v70c0 13.785 11.215 25 25 25h40c13.785 0 25-11.215 25-25v-70c0-13.785-11.215-25-25-25zm-5 90h-30v-60h30z"/><path d="m155.975 346h-39.95c-13.785 0-25 11.215-25 25v70c0 13.785 11.215 25 25 25h39.95c13.785 0 25-11.215 25-25v-70c0-13.785-11.215-25-25-25zm-5 90h-29.95v-60h29.95z"/><path d="m275.975 346h-39.95c-13.785 0-25 11.215-25 25v70c0 13.785 11.215 25 25 25h39.95c13.785 0 25-11.215 25-25v-70c0-13.785-11.215-25-25-25zm-5 90h-29.95v-60h29.95z"/></g><path d="m275.98 346h-19.98v30h14.98v60h-14.98v30h19.98c13.78 0 25-11.21 25-25v-70c0-13.79-11.22-25-25-25z" fill="#00adea"/><path d="m236.025 166h39.95c13.785 0 25-11.215 25-25v-70c0-13.785-11.215-25-25-25h-39.95c-13.785 0-25 11.215-25 25v70c0 13.785 11.215 25 25 25zm5-90h29.95v60h-29.95z" fill="#0acefa"/><path d="m275.98 46h-19.98v30h14.98v60h-14.98v30h19.98c13.78 0 25-11.21 25-25v-70c0-13.79-11.22-25-25-25z" fill="#00adea"/><path d="m356 316h40c13.785 0 25-11.215 25-25v-70c0-13.785-11.215-25-25-25h-40c-13.785 0-25 11.215-25 25v70c0 13.785 11.215 25 25 25zm5-90h30v60h-30z" fill="#00adea"/><path d="m356.025 166h39.95c13.785 0 25-11.215 25-25v-70c0-13.785-11.215-25-25-25h-39.95c-13.785 0-25 11.215-25 25v70c0 13.785 11.215 25 25 25zm5-90h29.95v60h-29.95z" fill="#00adea"/><path d="m422.95 441v-70c0-13.785-11.215-25-25-25h-39.95c-13.785 0-25 11.215-25 25v70c0 13.785 11.215 25 25 25h39.95c13.785 0 25-11.215 25-25zm-30-5h-29.95v-60h29.95z" fill="#00adea"/><path d="m90 482h-29v-452h29c8.284 0 15-6.716 15-15s-6.716-15-15-15h-44c-8.284 0-15 6.716-15 15v482c0 8.284 6.716 15 15 15h44c8.284 0 15-6.716 15-15s-6.716-15-15-15z" fill="#59717a"/><path d="m466 0h-46c-8.284 0-15 6.716-15 15s6.716 15 15 15h31v452h-31c-8.284 0-15 6.716-15 15s6.716 15 15 15h46c8.284 0 15-6.716 15-15v-482c0-8.284-6.716-15-15-15z" fill="#3e5157"/><path d="m286 286h-15v-75c0-8.284-6.716-15-15-15h-30.05c-8.284 0-15 6.716-15 15s6.716 15 15 15h15.05v60h-14.95c-8.284 0-15 6.716-15 15s6.716 15 15 15h59.95c8.284 0 15-6.716 15-15s-6.716-15-15-15z" fill="#0acefa"/><path d="m301 301c0 8.28-6.72 15-15 15h-30v-120c8.28 0 15 6.72 15 15v75h15c8.28 0 15 6.72 15 15z" fill="#00adea"/></g></svg>