<svg id="Capa_1" enable-background="new 0 0 512 512" height="512" viewBox="0 0 512 512" width="512" xmlns="http://www.w3.org/2000/svg"><g><path d="m123.915 420.999h50.282c4.36 0 8.217-2.825 9.533-6.981l83.289-263.019h234.981c5.523 0 10-4.477 10-10v-40c0-5.523-4.477-10-10-10h-271.597c-4.36 0-8.217 2.825-9.533 6.981l-75.2 237.469-38.31-88.425c-1.585-3.657-5.19-6.025-9.176-6.025h-88.184c-5.523 0-10 4.477-10 10v40c0 5.523 4.477 10 10 10h55.35l49.39 113.976c1.584 3.657 5.189 6.024 9.175 6.024z" fill="#3e5157"/><path d="m512 100.999v40c0 5.52-4.48 10-10 10h-127.93v-60h127.93c5.52 0 10 4.48 10 10z" fill="#28373b"/><path d="m462.979 375.644-46.479-46.479 46.478-46.479c3.905-3.905 3.905-10.237 0-14.142l-28.284-28.284c-3.905-3.905-10.237-3.905-14.142 0l-46.478 46.479-46.479-46.478c-3.905-3.905-10.237-3.905-14.142 0l-28.284 28.284c-3.905 3.905-3.905 10.237 0 14.142l46.479 46.478-46.478 46.479c-3.905 3.905-3.905 10.237 0 14.142l28.284 28.284c3.905 3.905 10.237 3.905 14.142 0l46.478-46.479 46.479 46.478c3.905 3.905 10.237 3.905 14.142 0l28.284-28.284c3.905-3.905 3.905-10.236 0-14.141z" fill="#0acefa"/><path d="m462.98 375.639c3.9 3.91 3.9 10.24 0 14.15l-28.28 28.28c-3.91 3.91-10.24 3.91-14.15 0l-46.48-46.48v-84.85l46.48-46.48c3.91-3.9 10.24-3.9 14.14 0l28.29 28.29c3.9 3.9 3.9 10.23 0 14.14l-46.48 46.48z" fill="#00adea"/></g></svg>