<svg xmlns="http://www.w3.org/2000/svg" height="512" width="512" xmlns:v="https://vecta.io/nano"><linearGradient id="A" gradientUnits="userSpaceOnUse" x1="256" x2="256" y1="30" y2="482"><stop offset="0" stop-color="#2af598"/><stop offset="1" stop-color="#009efd"/></linearGradient><path d="M512 235v41c-22.056 0-40 17.944-40 40v86c0 44.112-35.888 80-80 80v-40c22.056 0 40-17.944 40-40v-86c0-24.151 10.772-45.819 27.747-60.5C442.772 240.819 432 219.151 432 195v-85c0-22.056-17.944-40-40-40V30c44.112 0 80 35.888 80 80v85c0 22.056 17.944 40 40 40zM40 110v85c0 22.056-17.944 40-40 40v41c22.056 0 40 17.944 40 40v86c0 44.112 35.888 80 80 80v-40c-22.056 0-40-17.944-40-40v-86c0-24.151-10.772-45.819-27.747-60.5C69.228 240.819 80 219.151 80 195v-85c0-22.056 17.944-40 40-40V30c-44.112 0-80 35.888-80 80zm196 211h40v-40h-40zm90 0h40v-40h-40zm-180 0h40v-40h-40zm90-90h40v-40h-40zm0 180h40v-40h-40zm-90-180h40v-40h-40zm180 0h40v-40h-40zm-90-90h40v-40h-40zm-90 0h40v-40h-40zm180 0h40v-40h-40zM146 411h40v-40h-40zm180 0h40v-40h-40z" fill="url(#A)"/></svg>