<svg id="Capa_1" enable-background="new 0 0 497.001 497.001" height="512" viewBox="0 0 497.001 497.001" width="512" xmlns="http://www.w3.org/2000/svg"><g><path d="m316.486 388.514c0 .413 0 .835-.009 1.248-.047 10.085-.704 20.03-1.933 29.787h-277.597c-.263 0-.516-.009-.769-.019-13.088-.572-19.861-15.668-12.234-25.781.46-.619.985-1.22 1.557-1.792l89.877-89.99 106.99-107.121c7.796 6.145 15.217 12.74 22.216 19.758 44.432 44.545 71.902 106.014 71.902 173.91z" fill="#e2f1fe"/><path d="m244.584 214.604c-6.999-7.018-14.42-13.613-22.216-19.758l-16.066 16.085c4.702 4.056 9.268 8.264 13.65 12.658 44.432 44.545 71.902 106.014 71.902 173.91 0 .413 0 .835-.009 1.248-.033 7.008-.366 13.946-.975 20.802h23.674c1.229-9.757 1.886-19.702 1.933-29.787.009-.413.009-.835.009-1.248 0-67.896-27.47-129.365-71.902-173.91z" fill="#c4e3ff"/><path d="m153.161 395.202v31.75h-135.89c-.28 0-.55-.01-.82-.02-13.95-.61-21.17-16.7-13.04-27.48.49-.66 1.05-1.3 1.66-1.91l95.8-95.92 22.69 21.91c18.3 18.38 29.6 43.7 29.6 71.67z" fill="#8ac9fe"/><path d="m497.001 402.522v17.11c0 4.04-3.28 7.32-7.32 7.32h-472.41c-15.35 0-23.04-18.55-12.2-29.41l209.84-210.1 103.36-103.49c.11-.11.23-.22.34-.33l6.17-6.18 5.23-5.24c2.86-2.87 7.5-2.87 10.36-.01l12.09 12.09c2.86 2.86 2.86 7.5 0 10.36l-113.87 113.86-181.66 181.66c-1.86 1.86-.55 5.04 2.08 5.04h430.67c4.04 0 7.32 3.28 7.32 7.32z" fill="#6c7fd8"/><g fill="#4f66d0"><path d="m468.371 395.202c4.302 0 7.79 3.488 7.79 7.79v16.17c0 4.302-3.488 7.79-7.79 7.79h21.306c4.045 0 7.324-3.279 7.324-7.324v-17.101c0-4.045-3.279-7.324-7.324-7.324h-21.306z"/><path d="m352.461 94.642-113.87 113.86-181.66 181.66c-1.86 1.86-.55 5.04 2.08 5.04h-9.15c-6.94 0-10.42-8.39-5.51-13.3l173.4-173.4 113.54-113.53c3.04-3.04 3.04-7.98 0-11.02-3.48-3.48-9.06-3.59-12.68-.33l6.17-6.18 5.23-5.24c2.86-2.87 7.5-2.87 10.36-.01l12.09 12.09c2.86 2.86 2.86 7.5 0 10.36z"/></g><g><path d="m465.373 255.305c-13.035 0-23.641-10.605-23.641-23.641s10.605-23.641 23.641-23.641 23.641 10.605 23.641 23.641-10.606 23.641-23.641 23.641zm0-32.282c-4.765 0-8.641 3.876-8.641 8.641s3.876 8.641 8.641 8.641 8.641-3.876 8.641-8.641-3.877-8.641-8.641-8.641z" fill="#678d98"/></g><g><g><path d="m406.958 304.586c-14.135.001-26.92-11.862-26.855-26.854 0-4.142 3.357-7.5 7.5-7.5s7.5 3.358 7.5 7.5c-.107 5.487 4.961 11.864 12.103 11.851 6.179-.125 11.269-5.049 11.589-11.211.68-10.928-12.689-15.466-21.59-10.438-2.521 1.277-5.563 1.034-7.842-.638-2.277-1.673-3.439-4.475-2.978-7.263l4.71-28.428c.6-3.62 3.73-6.274 7.399-6.274h23.774c4.143 0 7.5 3.358 7.5 7.5s-3.357 7.5-7.5 7.5h-17.415l-1.77 10.682c1.187-.089 2.469-.135 3.873-.135 7.326 0 14.425 3.05 19.474 8.368 5.121 5.394 7.729 12.463 7.344 19.904-.727 13.978-12.265 25.148-26.267 25.43-.183.004-.367.006-.549.006z" fill="#678d98"/></g></g><g><g><path d="m353.252 301.334c-.021 0-.044 0-.065 0-4.143-.036-7.471-3.422-7.436-7.564.029-3.411.06-7.179.089-11.111h-24.093c-2.653 0-5.109-1.402-6.458-3.687-1.35-2.285-1.391-5.113-.109-7.436 5.013-9.085 21.647-39.072 25.265-43.511 3.411-4.184 8.066-5.868 12.455-4.512 4.416 1.368 7.551 5.609 7.984 10.805.188 2.247.144 18.262.058 33.341h.542c4.143 0 7.5 3.358 7.5 7.5s-3.357 7.5-7.5 7.5h-.643c-.038 5.056-.072 9.122-.09 11.241-.036 4.119-3.387 7.434-7.499 7.434zm-18.758-33.676h11.444c.043-7.422.073-14.579.08-20.267-3.21 5.516-7.31 12.736-11.524 20.267z" fill="#678d98"/></g></g><g><path d="m128.876 318.241c-.004-.004-.008-.007-.012-.011l-10.616 10.616.162.143c17.574 17.738 27.251 41.244 27.251 66.214h15c0-29.043-11.288-56.376-31.785-76.962z" fill="#0ed290"/></g></g></svg>