<svg xmlns="http://www.w3.org/2000/svg" viewBox="0 0 512 512"><path opacity="0.08" d="M503.83 215.15c-114.13 0-206.98-92.85-206.98-206.98a8.17 8.17 0 0 1 16.34 0c0 105.118 85.52 190.638 190.638 190.638a8.171 8.171 0 0 1 .001 16.341zM206.98 512a8.17 8.17 0 0 1-8.17-8.17c0-105.118-85.52-190.638-190.638-190.638a8.17 8.17 0 1 1 0-16.34c114.13 0 206.98 92.85 206.98 206.98-.001 4.5-3.658 8.17-8.17 8.17z" fill="#f23e6d"/><path opacity="0.08" d="M272.34 346.78a8.17 8.17 0 0 0 0-16.34h-8.17V181.56h8.17a8.17 8.17 0 1 0 0-16.34h-8.17V98.95h8.17a8.17 8.17 0 1 0 0-16.34h-8.17V16.34h8.17a8.17 8.17 0 1 0 0-16.34h-32.68a8.17 8.17 0 1 0 0 16.34h8.17V82.6h-8.17a8.17 8.17 0 1 0 0 16.34h8.17v66.27h-8.17a8.17 8.17 0 1 0 0 16.34h8.17v66.27h-66.27v-8.17a8.17 8.17 0 1 0-16.34 0v8.17H98.95v-8.17a8.17 8.17 0 1 0-16.34 0v8.17H16.34v-8.17a8.17 8.17 0 1 0-16.34.01v32.68a8.17 8.17 0 1 0 16.34 0v-8.17H82.6v8.17a8.17 8.17 0 1 0 16.34 0v-8.17h66.27v8.17a8.17 8.17 0 1 0 16.34 0v-8.17h66.27v66.27h-8.17a8.17 8.17 0 0 0 0 16.34h8.17v66.27h-8.17a8.17 8.17 0 1 0 0 16.34h8.17v66.27h-8.17a8.17 8.17 0 1 0 0 16.34h32.68a8.17 8.17 0 1 0 0-16.34h-8.17V429.4h8.17a8.17 8.17 0 0 0 0-16.34h-8.17V346.8h8.17zm231.5-115.3a8.17 8.17 0 0 0-8.17 8.17v8.17H429.4v-8.17a8.17 8.17 0 0 0-16.34 0v8.17H346.8v-8.17a8.17 8.17 0 0 0-16.34 0v8.17H288.7a8.17 8.17 0 1 0 0 16.34h41.76v8.17a8.17 8.17 0 0 0 16.34 0v-8.17h66.27v8.17a8.17 8.17 0 0 0 16.34 0v-8.17h66.27v8.17a8.17 8.17 0 1 0 16.34 0v-32.68a8.17 8.17 0 0 0-8.169-8.171z" fill="#3e0412"/></svg>