<svg id="Capa_1" enable-background="new 0 0 495.486 495.486" height="512" viewBox="0 0 495.486 495.486" width="512" xmlns="http://www.w3.org/2000/svg"><g><path d="m213.34 109.233h-16.96c-2.83 0-5.268 1.994-5.829 4.768l-10.723 52.998c-16.203 80.083-15.546 161.176 1.952 241.025l8.659 39.513c.598 2.729 3.015 4.674 5.81 4.674h17.024c3.512 0 6.125-3.247 5.373-6.678l-9.532-43.5c-16.66-76.027-17.286-153.238-1.859-229.486l11.477-56.724c.688-3.406-1.916-6.59-5.392-6.59z" fill="#0ed290"/><path d="m201.055 452.212h12.217c3.512 0 6.125-3.247 5.373-6.678l-9.532-43.5c-16.66-76.027-17.286-153.238-1.859-229.486l11.477-56.724c.689-3.407-1.915-6.591-5.391-6.591h-14.723c6.741 0 6.067 6.175 4.73 12.782l-10.224 50.533c-15.427 76.248-14.802 153.459 1.859 229.486l8.158 37.228c1.458 6.653 1.937 12.95-2.085 12.95z" fill="#00c285"/><path d="m450.292 109.233h16.96c2.83 0 5.268 1.994 5.829 4.768l10.723 52.998c16.203 80.083 15.546 161.176-1.952 241.025l-8.659 39.513c-.598 2.729-3.015 4.674-5.81 4.674h-17.023c-3.512 0-6.125-3.247-5.373-6.678l9.532-43.5c16.66-76.027 17.286-153.238 1.859-229.486l-11.477-56.724c-.689-3.406 1.915-6.59 5.391-6.59z" fill="#0ed290"/><path d="m483.805 166.999-10.723-52.998c-.561-2.774-2.999-4.768-5.829-4.768h-14.906c5.076 0 6.363 3.577 7.37 8.552l9.957 49.214c16.203 80.083 15.546 161.176-1.952 241.025l-7.846 35.804c-1.073 4.895-1.823 8.384-5.408 8.384h12.917c2.794 0 5.211-1.945 5.81-4.674l8.659-39.513c17.497-79.85 18.154-160.943 1.951-241.026z" fill="#00c285"/><g><path d="m413.575 272.727h-166.991c-2.067 0-3.742-1.676-3.742-3.742v-20.498c0-2.067 1.676-3.742 3.742-3.742h166.991c2.067 0 3.742 1.676 3.742 3.742v20.498c0 2.067-1.675 3.742-3.742 3.742z" fill="#537983"/></g><path d="m390.45 244.745c3.72 0 6.737 3.016 6.737 6.737v14.509c0 3.72-3.016 6.737-6.737 6.737h23.125c2.067 0 3.742-1.676 3.742-3.742v-20.497c0-2.067-1.676-3.742-3.742-3.742h-23.125z" fill="#3e5959"/><g><path d="m51.708 469.492c-.681.073-1.37.131-2.069.176-28.505 1.835-43.557-15.241-49.213-27.918-1.238-2.776.335-5.998 3.27-6.785l17.986-4.823c3.909-.334 4.594 1.127 8.374 6.035 4.219 4.244 10.037 6.065 17.786 5.566 18.052-1.151 21.926-27.92 21.961-28.19l40.602-335.064c2.199-17.343 15.023-50.549 47.933-52.672 28.322-1.823 43.364 15.023 49.104 27.674 1.313 2.894-.346 6.274-3.416 7.097l-17.452 4.679c-2.192.588-4.543-.295-5.729-2.23-.699-1.142-1.655-2.454-2.924-3.73-4.219-4.244-10.037-6.065-17.786-5.566-18.042 1.168-21.927 27.92-21.961 28.19l-40.602 335.065c-2.152 16.975-14.493 49.151-45.864 52.496z" fill="#6c7fd8"/></g><g fill="#4f66d0"><path d="m14.666 436.143.03.03c4.21 4.25 10.03 6.07 17.78 5.57 1.8-.12 3.46-.49 4.98-1.06-2.88-.93-5.33-2.43-7.4-4.51-1.716-1.429-3.33-6.835-8.374-6.03l-9.606 2.58-4.826 1.292c2.675-.716 5.465.162 7.416 2.128z"/><path d="m204.03 60.59-8.315 2.233c-1.38-3.82-2.72-7.17-3.08-8.04-4.51-10.91-16.2-25.73-37.81-28.61 1.14-.16 2.31-.28 3.51-.36 28.321-1.82 43.365 15.03 49.108 27.679 1.315 2.894-.343 6.274-3.413 7.098z"/><path d="m144.766 53.743c-18.04 1.17-21.92 27.92-21.96 28.19l-40.6 335.06c-2.12 16.71-14.11 48.15-44.4 52.32 3.65.49 7.59.63 11.83.36.7-.05 1.39-.11 2.07-.18 31.37-3.35 43.71-35.52 45.87-52.5l40.6-335.06c.03-.24 3.18-21.95 16.98-27.13-2.99-.97-6.44-1.32-10.39-1.06z"/></g><g fill="#678d98"><path d="m366.859 308.401c-3.921-1.355-8.186.725-9.539 4.638l-26.677 77.16-27.37-77.215c-1.385-3.904-5.67-5.947-9.575-4.563-3.904 1.384-5.947 5.67-4.563 9.575l33.65 94.933-12.595 36.429c-1.354 3.915.723 8.186 4.638 9.539 2.93.931 7.384.086 9.538-4.638l47.13-136.318c1.353-3.916-.723-8.187-4.637-9.54z"/><path d="m374.698 205.767-34.209-45.076 29.09-38.579c2.494-3.308 1.834-8.01-1.473-10.504-3.309-2.494-8.012-1.834-10.504 1.473l-26.537 35.194-26.723-35.212c-2.505-3.299-7.209-3.945-10.509-1.44-3.3 2.504-3.944 7.208-1.44 10.508l29.287 38.591-32.76 43.448c-2.494 3.308-1.834 8.01 1.473 10.504 2.098 1.645 7.044 2.511 10.504-1.473l30.208-40.062 31.645 41.698c2.38 2.163 5.206 4.561 10.509 1.44 3.299-2.506 3.943-7.21 1.439-10.51z"/></g></g></svg>