<svg xmlns="http://www.w3.org/2000/svg" width="297.048" height="1024.093" viewBox="0 0 278.481 960.087"><path d="M106.443 197.346c8.214-48.954 26.71-96.347 45.031-123.329s36.467-33.548 56.226-34.497 41.134 3.72 51.478 14.197 9.655 26.759 2.802 40.3-19.872 24.341-31.367 28.375-21.466 1.3-30.443-3.427-16.96-11.446-23.179-12.602-10.673 3.255-14.182 9.272-6.067 13.639-6.163 32.56 2.275 49.139 4.383 77.193 3.952 53.942 6.422 118.142l8.121 243.226c2.555 76.513 4.569 127.028-3.644 175.983s-26.656 96.347-44.951 123.329-36.439 33.548-56.199 34.497-41.134-3.72-51.478-14.197-9.655-26.759-2.802-40.3 19.872-24.341 31.367-28.375 21.466-1.3 30.443 3.427 16.96 11.446 23.179 12.602 10.673-3.255 14.182-9.272 6.067-13.639 6.163-32.56-2.275-49.139-4.383-77.193-3.952-53.942-6.422-118.142l-8.149-243.226c-2.582-76.513-4.649-127.028 3.564-175.983z"/></svg>