<svg xmlns="http://www.w3.org/2000/svg" viewBox="0 0 285 95"><text x="10" y="70" fill="#333" font-size="60" font-family="Roboto">Σquations</text><g fill-rule="evenodd"><path fill="#01579b" d="M163.832 29.365l-3.263-3.25c-.393-.402-.617-.938-.628-1.5a2.51 2.51 0 0 1 .25-.876l3.018-6.252.623 11.878z"/><path d="M175.006 18.113l-3.265-3.25c-.283-.284-.878-.625-1.38-.625a2.31 2.31 0 0 0-1.129.25l-6.023 3 11.797.627zm-7.282 15.127h7.9v-3.377l-5.9-1.875-5.397 1.875z" fill="#40c4ff"/><path fill="#29b6f6" d="M163.21 27.615c0 1.01.126 1.25.628 1.752l.506.504h11.298l-5.53-6.255-6.902-6.127v10.127z"/><path fill="#01579b" d="M173.247 17.486H163.21l12.428 12.378h3.4v-7.752l-4.02-4c-.564-.565-1.065-.627-1.76-.627"/><path fill="#fff" d="M163.96 29.49c-.506-.504-.628-.997-.628-1.876V17.612l-.12-.126v10.127c0 .88 0 1.123.755 1.878l.378.375-.383-.375z"/><path fill="#263238" d="M178.9 21.988v7.75h-3.39l.126.125h3.39v-7.75z"/><path fill="#fff" d="M175.006 18.113c-.623-.62-1.133-.627-1.884-.627h-9.914l.126.126h9.79c.373 0 1.32-.062 1.882.504l-.002-.003z"/></g></svg>
