<svg id="Capa_1" enable-background="new 0 0 497.003 497.003" height="512" viewBox="0 0 497.003 497.003" width="512" xmlns="http://www.w3.org/2000/svg"><g><path d="m431.702 259.812-24.426 67.556c-23.247 60.486-109.281 59.155-130.646-2.021l-21.49-65.535z" fill="#e2f1fe"/><path d="m409.831 259.812-24.427 67.555c-9.896 25.748-31.17 40.286-53.99 43.783 30.048 4.61 62.825-9.866 75.861-43.783l24.427-67.555z" fill="#c4e3ff"/><path d="m67.297 236.191 24.861-67.279c23.348-60.368 109.252-58.948 130.593 2.158l21.695 65.121z" fill="#e2f1fe"/><path d="m222.751 171.07c-12.268-35.129-45.873-50.525-76.665-45.803 23.543 3.61 45.41 18.934 54.794 45.803l21.695 65.121h21.871z" fill="#c4e3ff"/><path d="m494.79 252.841-36.47 26.63c-3.55 2.59-8.54.05-8.54-4.34v-8.988c0-1.288-1.044-2.332-2.332-2.332h-376.718c-1.894 0-3.43 1.536-3.43 3.43v157.91c0 3.076-2.494 5.57-5.57 5.57h-19.48c-3.076 0-5.57-2.494-5.57-5.57v-157.9c0-1.9-1.54-3.44-3.44-3.44h-27.67c-3.076 0-5.57-2.494-5.57-5.57v-19.481c0-3.076 2.494-5.57 5.57-5.57h27.67c1.9 0 3.44-1.54 3.44-3.44v-157.9c0-3.076 2.494-5.57 5.57-5.57h19.48c3.076 0 5.57 2.494 5.57 5.57v157.9c0 1.9 1.54 3.44 3.44 3.44h376.708c1.288 0 2.332-1.044 2.332-2.332v-8.988c0-4.39 4.99-6.93 8.54-4.34l36.47 26.63c2.95 2.151 2.95 6.531 0 8.681z" fill="#6c7fd8"/><path d="m494.79 244.161-36.47-26.63c-3.55-2.59-8.54-.05-8.54 4.34v7.992c0-2.969 3.37-4.681 5.768-2.93l23.592 17.228c2.94 2.15 2.94 6.53 0 8.68l-23.592 17.228c-2.397 1.751-5.768.038-5.768-2.93v7.992c0 4.39 4.99 6.93 8.54 4.34l36.47-26.63c2.95-2.15 2.95-6.53 0-8.68z" fill="#4f66d0"/><g fill="#4f66d0"><path d="m70.73 233.191h-12.27c-3.76 0-6.82-3.05-6.82-6.82v-152.57c0-4.15-3.36-7.52-7.51-7.52h17.6c3.076 0 5.57 2.494 5.57 5.57v157.9c0 1.9 1.53 3.44 3.43 3.44z"/><path d="m70.73 263.811c-1.9 0-3.43 1.54-3.43 3.44v157.9c0 3.076-2.494 5.57-5.57 5.57h-17.6c4.15 0 7.51-3.37 7.51-7.52v-152.57c0-3.77 3.06-6.82 6.82-6.82z"/></g><g><g fill="#8ac9fe"><path d="m155.726 168.528c-4.143 0-7.5-3.358-7.5-7.5v-.965c0-4.142 3.357-7.5 7.5-7.5s7.5 3.358 7.5 7.5v.965c0 4.142-3.358 7.5-7.5 7.5z"/><path d="m163.226 196.54v.965c0 4.142-3.357 7.5-7.5 7.5s-7.5-3.358-7.5-7.5v-.965c0-4.142 3.357-7.5 7.5-7.5s7.5 3.358 7.5 7.5z"/></g></g><g><g><path d="m340.713 343.049c-4.143 0-7.5-3.358-7.5-7.5v-.965c0-4.142 3.357-7.5 7.5-7.5s7.5 3.358 7.5 7.5v.965c0 4.142-3.358 7.5-7.5 7.5z" fill="#8ac9fe"/></g></g><g><g><path d="m340.713 306.911c-4.143 0-7.5-3.358-7.5-7.5v-.965c0-4.142 3.357-7.5 7.5-7.5s7.5 3.358 7.5 7.5v.965c0 4.142-3.358 7.5-7.5 7.5z" fill="#8ac9fe"/></g></g><path d="m229.832 168.597c-5.571-15.951-15.593-29.205-28.981-38.331-12.42-8.465-27.122-13.074-42.519-13.328-15.395-.247-30.244 3.866-42.937 11.916-13.684 8.679-24.138 21.595-30.232 37.352l-26.141 66.985h16.316l23.815-61.574c11.52-29.784 37.973-40 58.931-39.681 20.936.346 47.058 11.458 57.586 41.606l30.616 87.666h15.889z" fill="#0ed290"/><path d="m423.667 263.812-23.393 60.865c-11.47 29.843-37.978 40.135-58.912 39.804-20.96-.324-47.111-11.425-57.651-41.607l-26.076-74.665h-15.889l27.803 79.611c5.576 15.967 15.61 29.231 29.018 38.357 12.435 8.464 27.153 13.064 42.563 13.302.421.007.84.01 1.259.01 14.96 0 29.352-4.134 41.696-11.989 13.684-8.707 24.123-21.654 30.191-37.441l25.14-66.246h-15.749z" fill="#fd6930"/></g></svg>