<svg xmlns="http://www.w3.org/2000/svg" viewBox="0 0 512 512" xmlns:v="https://vecta.io/nano"><path d="M458.67 213.333H352.003a10.67 10.67 0 0 1-10.686-10.648c-.005-2.84 1.123-5.565 3.134-7.571l84.032-84.053A66.13 66.13 0 0 0 448.003 64c0-23.564-19.103-42.667-42.667-42.667S362.669 40.436 362.669 64v10.667a10.67 10.67 0 0 1-10.667 10.667 10.67 10.67 0 0 1-10.667-10.667V64c0-35.346 28.654-64 64-64s64 28.654 64 64c.069 23.33-9.204 45.717-25.749 62.165L377.752 192h80.917a10.67 10.67 0 0 1 10.667 10.667 10.67 10.67 0 0 1-10.666 10.666z" fill="#2196f3"/><g fill="#455a64"><path d="M53.336 512a10.67 10.67 0 0 1-10.651-10.682c.003-2.011.574-3.98 1.648-5.68l256-405.333c3.146-4.984 9.736-6.474 14.72-3.328s6.474 9.736 3.328 14.72l-256 405.333c-1.959 3.102-5.375 4.979-9.045 4.97z"/><path d="M309.336 512c-3.662.002-7.069-1.875-9.024-4.971l-256-405.333c-3.146-4.984-1.656-11.574 3.328-14.72s11.574-1.656 14.72 3.328l256 405.333A10.67 10.67 0 0 1 309.336 512z"/></g></svg>