<svg xmlns="http://www.w3.org/2000/svg" viewBox="0 0 512 512"  xmlns:v="https://vecta.io/nano"><circle cx="256" cy="256" r="256" fill="#366db6"/><g fill="#fff"><path d="M300.138 79.448c-38.938 0-70.621 31.682-70.621 70.621v52.966h-44.138v35.31h44.138v114.759c0 19.474-15.837 35.31-35.31 35.31s-35.31-15.837-35.31-35.31h-35.31c0 38.938 31.682 70.621 70.621 70.621s70.621-31.682 70.621-70.621V238.345h44.138v-35.31h-44.138v-52.966c0-19.474 15.837-35.31 35.31-35.31s35.31 15.837 35.31 35.31h35.31c0-38.939-31.683-70.621-70.621-70.621zm97.103 326.621c-2.26 0-4.52-.865-6.241-2.586l-70.621-70.621a8.826 8.826 0 1 1 12.482-12.482L403.482 391a8.82 8.82 0 0 1 0 12.482 8.8 8.8 0 0 1-6.241 2.587z"/><path d="M326.621 406.069c-2.26 0-4.52-.865-6.241-2.586a8.82 8.82 0 0 1 0-12.482L391 320.38a8.82 8.82 0 1 1 12.482 12.482l-70.621 70.621a8.8 8.8 0 0 1-6.24 2.586z"/></g></svg>