<svg id="Capa_1" enable-background="new 0 0 497.003 497.003" height="512" viewBox="0 0 497.003 497.003" width="512" xmlns="http://www.w3.org/2000/svg"><g><g><g><path d="m115.902 453.247c-4.142 0-7.5-3.358-7.5-7.5v-22.812c0-4.142 3.358-7.5 7.5-7.5s7.5 3.358 7.5 7.5v22.812c0 4.142-3.358 7.5-7.5 7.5z" fill="#c4e3ff"/></g><g><path d="m182.201 453.247c-4.142 0-7.5-3.358-7.5-7.5v-22.812c0-4.142 3.358-7.5 7.5-7.5s7.5 3.358 7.5 7.5v22.812c0 4.142-3.358 7.5-7.5 7.5z" fill="#c4e3ff"/></g><g><path d="m314.799 453.247c-4.142 0-7.5-3.358-7.5-7.5v-22.812c0-4.142 3.358-7.5 7.5-7.5s7.5 3.358 7.5 7.5v22.812c0 4.142-3.358 7.5-7.5 7.5z" fill="#c4e3ff"/></g><g><path d="m381.098 453.247c-4.142 0-7.5-3.358-7.5-7.5v-22.812c0-4.142 3.358-7.5 7.5-7.5s7.5 3.358 7.5 7.5v22.812c0 4.142-3.358 7.5-7.5 7.5z" fill="#c4e3ff"/></g></g><g><g><path d="m240.187 291.215h-22.812c-4.142 0-7.5-3.358-7.5-7.5s3.358-7.5 7.5-7.5h22.812c4.142 0 7.5 3.358 7.5 7.5s-3.358 7.5-7.5 7.5z" fill="#c4e3ff"/></g><g><path d="m240.187 352.846h-22.812c-4.142 0-7.5-3.358-7.5-7.5s3.358-7.5 7.5-7.5h22.812c4.142 0 7.5 3.358 7.5 7.5s-3.358 7.5-7.5 7.5z" fill="#c4e3ff"/></g><g><path d="m240.187 158.618h-22.812c-4.142 0-7.5-3.358-7.5-7.5s3.358-7.5 7.5-7.5h22.812c4.142 0 7.5 3.358 7.5 7.5s-3.358 7.5-7.5 7.5z" fill="#c4e3ff"/></g><g><path d="m240.187 92.319h-22.812c-4.142 0-7.5-3.358-7.5-7.5s3.358-7.5 7.5-7.5h22.812c4.142 0 7.5 3.358 7.5 7.5s-3.358 7.5-7.5 7.5z" fill="#c4e3ff"/></g></g><path d="m494.79 418.942-36.47 26.63c-3.55 2.59-8.54.05-8.54-4.35v-8.177c0-1.73-1.403-3.133-3.133-3.133l-171.877-.011c-.171-.001-7.557.012-8.06.051-1.65.24-2.9 1.65-2.9 3.36v57.5c0 3.419-2.771 6.19-6.19 6.19h-18.24c-3.419 0-6.19-2.771-6.19-6.19v-57.5c0-1.878-1.522-3.4-3.4-3.4h-221.73c-4.451 0-8.06-3.609-8.06-8.06v-14.5c0-4.451 3.609-8.06 8.06-8.06h221.73c1.878 0 3.4-1.522 3.4-3.4v-346.343c0-1.285-1.042-2.327-2.327-2.327h-8.993c-4.39 0-6.93-4.99-4.34-8.54l19.01-26.03 7.62-10.44c2.15-2.95 6.53-2.95 8.68 0l26.63 36.47c2.59 3.55.05 8.54-4.34 8.54h-8.993c-1.285 0-2.327 1.042-2.327 2.327v346.343c0 1.878 1.522 3.4 3.4 3.4h179.437c1.73 0 3.133-1.403 3.133-3.133v-8.187c0-4.39 4.99-6.93 8.54-4.34l36.47 26.63c2.95 2.141 2.95 6.531 0 8.68z" fill="#6c7fd8"/><path d="m494.79 410.263-36.47-26.63c-3.55-2.59-8.54-.05-8.54 4.34v7.262c0-2.59 2.941-4.085 5.033-2.557l24.087 17.585c2.95 2.14 2.95 6.53 0 8.68l-24.087 17.585c-2.092 1.528-5.033.033-5.033-2.557v7.252c0 4.4 4.99 6.94 8.54 4.35l36.47-26.63c2.95-2.15 2.95-6.54 0-8.68z" fill="#4f66d0"/><g fill="#4f66d0"><path d="m266.71 429.952c-1.65.24-2.9 1.65-2.9 3.36v57.5c0 3.42-2.77 6.19-6.19 6.19h-14.66s4.96 0 4.96-9.06v-52.32c0-3.15 2.56-5.71 5.71-5.71.486.033 12.71-.066 13.08.04z"/><path d="m275.13 47.222h-8.993c-1.285 0-2.327 1.042-2.327 2.327v346.343c0 1.88 1.52 3.4 3.4 3.4h-13.58c-3.154 0-5.71-2.556-5.71-5.71v-344.033c0-1.285 1.042-2.327 2.327-2.327h8.993c4.39 0 6.93-4.99 4.34-8.54l-19-26.03c-1.99-2.72-6.05-2.72-8.04 0l7.62-10.44c2.15-2.95 6.53-2.95 8.68 0l26.63 36.47c2.59 3.55.05 8.54-4.34 8.54z"/></g><g><path d="m407.802 349.619c-21.938 0-42.997-10.898-55.502-29.324l-54.362-80.1c-11.298-16.647-29.318-26.195-49.438-26.195s-38.14 9.548-49.438 26.196l-54.362 80.1c-14.331 21.116-39.906 32.349-65.15 28.615-4.098-.606-6.928-4.419-6.322-8.517.606-4.097 4.422-6.923 8.517-6.322 19.588 2.897 39.426-5.818 50.544-22.2l54.362-80.1c13.927-20.521 37.048-32.772 61.849-32.772s47.922 12.251 61.85 32.772l54.362 80.1c11.119 16.383 30.958 25.1 50.544 22.2 4.101-.602 7.911 2.225 8.517 6.322.606 4.098-2.225 7.911-6.322 8.517-3.218.475-6.445.708-9.649.708z" fill="#0ed290"/></g></g></svg>