<svg id="Capa_1" enable-background="new 0 0 504.5 504.5" height="512" viewBox="0 0 504.5 504.5" width="512" xmlns="http://www.w3.org/2000/svg"><g><g><path d="m61.856 104.731c6.943-4.348 14.246-6.016 16.531-6.458h12.915c3.278 0 5.935-2.657 5.935-5.935v-17.746c0-3.291-2.678-5.954-5.97-5.935l-16.073.095c-19.846 2.646-57.378 19.046-57.378 62.175l.049 119.504c.028.86.131 7.995-3.832 12.219-2.01 2.142-5.124 3.502-9.289 4.062-2.707.363-4.744 2.651-4.744 5.382v19.472c0 2.732 2.037 5.019 4.744 5.383 4.165.56 7.279 1.92 9.289 4.062 3.947 4.206 3.862 11.299 3.833 12.208l-.05 119.515c0 43.129 37.532 59.529 57.378 62.175l16.073.095c3.291.019 5.97-2.643 5.97-5.935v-17.747c0-3.278-2.657-5.935-5.935-5.935h-12.92c-2.217-.428-9.119-2.005-15.856-6.048-10.132-6.079-15.058-14.782-15.058-26.606v-117.765c.205-3.618.298-16.082-6.79-27.643-2.066-3.37-2.066-7.618 0-10.988 7.088-11.561 6.995-24.025 6.79-27.643v-117.767c-.001-11.565 4.706-20.133 14.388-26.196z" fill="#0ed290"/><path d="m61.856 104.732c6.943-4.348 14.246-6.016 16.531-6.458h12.916c3.278 0 5.935-2.657 5.935-5.935v-17.747c0-3.291-2.678-5.954-5.97-5.935l-13.996.083c2.567.446 4.523 2.679 4.523 5.377v18.694c0 3.017-2.446 5.462-5.462 5.462h-13.388c-2.285.443-9.588 2.111-16.531 6.458-9.682 6.062-14.388 14.631-14.388 26.195v117.767c.204 3.606.297 16.001-6.721 27.53-2.098 3.446-2.098 7.768 0 11.215 7.018 11.529 6.925 23.924 6.721 27.53v117.767c0 11.823 4.926 20.526 15.058 26.606 6.738 4.043 13.64 5.62 15.856 6.048h13.393c3.017 0 5.462 2.446 5.462 5.462v18.694c0 2.698-1.956 4.931-4.523 5.377l13.996.083c3.291.019 5.97-2.643 5.97-5.935v-17.747c0-3.278-2.657-5.935-5.935-5.935h-12.921c-2.217-.428-9.119-2.005-15.856-6.048-10.132-6.079-15.058-14.782-15.058-26.606v-117.766c.205-3.618.298-16.084-6.792-27.646-2.066-3.369-2.066-7.615 0-10.983 7.089-11.562 6.996-24.028 6.792-27.646v-117.766c0-11.565 4.706-20.133 14.388-26.195z" fill="#00c285"/><path d="m403.365 104.731c-6.943-4.348-14.246-6.016-16.531-6.458h-12.915c-3.278 0-5.935-2.657-5.935-5.935v-17.782c0-3.278 2.657-5.935 5.935-5.935h15.133l.975.13c19.846 2.646 57.378 19.046 57.378 62.175l-.049 119.504c-.028.86-.131 7.995 3.832 12.219 2.01 2.142 5.124 3.502 9.289 4.062 2.707.364 4.744 2.652 4.744 5.383v19.472c0 2.732-2.037 5.019-4.744 5.383-4.165.56-7.279 1.92-9.289 4.062-3.947 4.206-3.862 11.299-3.833 12.208l.05 119.515c0 43.129-37.532 59.529-57.378 62.175l-16.073.095c-3.291.019-5.97-2.643-5.97-5.935v-17.747c0-3.278 2.657-5.935 5.935-5.935h12.921c2.217-.428 9.119-2.005 15.856-6.048 10.132-6.079 15.058-14.782 15.058-26.606v-117.765c-.205-3.618-.298-16.082 6.79-27.643 2.066-3.37 2.066-7.618 0-10.988-7.088-11.561-6.995-24.025-6.79-27.643v-117.767c-.001-11.565-4.707-20.133-14.389-26.196z" fill="#0ed290"/><path d="m465.22 272.096v19.471c0 2.732-2.038 5.02-4.746 5.384-4.163.559-7.276 1.915-9.284 4.057-3.95 4.21-3.86 11.3-3.83 12.21l.04 119.52c0 33.25-22.31 50.62-41.62 58.03 13.99-9.81 26.06-29.64 26.18-58.03l-.05-119.52c-.03-.91-.11-8 3.84-12.21 1.72-1.84 4.26-3.1 7.58-3.77 3.78-.77 6.45-4.19 6.45-8.05v-14.71c0-3.86-2.67-7.28-6.45-8.05-3.32-.68-5.86-1.94-7.58-3.78-3.97-4.22-3.86-11.36-3.84-12.22l.05-119.5c-.32-26.32-11.07-46.26-23.86-57.1 18.73 7.89 39.3 25.17 39.3 57.1l-.04 119.5c-.03.86-.14 8 3.83 12.22 2.009 2.142 5.122 3.504 9.287 4.066 2.707.364 4.743 2.651 4.743 5.382z" fill="#00c285"/><g><path d="m148.114 420.575c-6.568 0-12.41-4.348-14.243-10.739l-19.865-73.275h-12.713c-2.24 0-4.055-1.816-4.055-4.055v-21.541c0-2.24 1.816-4.055 4.055-4.055h23.884c6.614 0 12.428 4.381 14.251 10.738l16.481 61.323c.335 1.246 2.144 1.111 2.291-.171l22.51-196.843c1.055-7.292 7.305-12.702 14.673-12.702h167.331c2.911 0 5.27 2.359 5.27 5.27v19.111c0 2.911-2.359 5.27-5.27 5.27h-147.124c-2.998 0-5.523 2.242-5.878 5.219l-24.282 203.747c-1.001 6.916-6.696 12.195-13.669 12.668-.338.024-23.311.035-23.647.035z" fill="#0ed290"/></g><g><path d="m367.98 174.528v19.11c0 2.91-2.36 5.27-5.27 5.27h-147.12c-3 0-5.52 2.24-5.88 5.22l-24.28 203.74c-1 6.92-6.7 12.2-13.67 12.67-.34.03-23.31.04-23.65.04-.1 0-.19-.01-.29-.01-6.44-.13-12.14-4.44-13.95-10.73l-19.86-73.28h-12.71c-2.24 0-4.06-1.82-4.06-4.06v-21.53c0-2.24 1.82-4.06 4.06-4.06h23.88c6.61 0 12.42 4.38 14.25 10.74l16.48 61.32c.33 1.25 2.14 1.11 2.29-.17l22.51-196.84c1.05-7.29 7.3-12.7 14.67-12.7h167.33c2.91 0 5.27 2.36 5.27 5.27z" fill="#537983"/></g><g fill="#3e5959"><g><path d="m215.59 198.908c-3 0-5.52 2.24-5.88 5.22l-24.28 203.74c-1 6.92-6.7 12.2-13.67 12.67-.34.03-23.31.04-23.65.04-.1 0-.19-.01-.29-.01 4.53-.01 8.36-.02 8.5-.03 6.97-.47 12.67-5.75 13.67-12.67l24.23-203.29c.38-3.23 3.13-5.67 6.39-5.67z"/><path d="m346.104 169.255c3.555 0 6.437 2.882 6.437 6.437v16.777c0 3.555-2.882 6.437-6.437 6.437h16.609c2.911 0 5.27-2.359 5.27-5.27v-19.111c0-2.911-2.359-5.27-5.27-5.27z"/></g><path d="m158.2 378.798-2.29 20.03c-.41 1.386-.886 3.957-5.03 4.48-2.28 0-4.29-1.54-4.88-3.74l-22.01-81.92c-1.83-6.36-7.64-10.74-14.26-10.74h15.45c6.61 0 12.42 4.38 14.25 10.74l16.48 61.32c.33 1.25 2.14 1.11 2.29-.17z"/></g></g><path d="m363.503 402.529-60.304-79.46 51.626-68.467c2.494-3.308 1.834-8.01-1.473-10.504-3.309-2.495-8.01-1.834-10.504 1.473l-49.073 65.081-49.405-65.1c-2.503-3.299-7.207-3.945-10.508-1.44-3.299 2.504-3.944 7.208-1.44 10.508l51.969 68.478-57.841 76.71c-2.494 3.308-1.834 8.01 1.473 10.504 1.353 1.02 2.938 1.512 4.51 1.512 2.273 0 4.52-1.03 5.994-2.985l55.288-73.324 57.74 76.082c1.475 1.944 3.714 2.966 5.979 2.966 1.58 0 3.173-.498 4.529-1.526 3.3-2.503 3.945-7.208 1.44-10.508z" fill="#678d98"/><g><g><path d="m478.483 83.489c-11.468 0-12.353-.295-13.333-.622-2.455-.818-4.292-2.681-5.04-5.111-1.261-4.099.602-6.538 4.313-11.397 2.934-3.841 8.394-10.991 17.545-24.065 2.52-3.601 4.211-6.919 4.909-9.625l.161-1.266c-.205-3.844-3.397-6.908-7.292-6.908-3.483 0-6.497 2.473-7.166 5.879-.798 4.064-4.741 6.709-8.805 5.914-4.064-.798-6.712-4.74-5.914-8.805 2.047-10.423 11.25-17.988 21.884-17.988 12.297 0 22.302 10.005 22.302 22.303 0 .317-.02.635-.061.95l-.286 2.238c-.032.25-.076.499-.133.745-1.086 4.682-3.546 9.784-7.312 15.165-5.386 7.695-9.523 13.384-12.636 17.575 4.724-.016 10.148-.062 15.285-.126h.096c4.099 0 7.446 3.296 7.498 7.406.052 4.142-3.264 7.542-7.405 7.594-8.186.1-14.186.144-18.61.144z" fill="#678d98"/></g></g><path d="m138.109 205.361c-4.628-4.757-11.002-7.272-18.435-7.272-5.311 0-10.636 1.509-15.294 4.634-.966-3.025-3.798-5.217-7.143-5.217-4.142 0-7.5 3.358-7.5 7.5v60.437c0 4.142 3.358 7.5 7.5 7.5s7.5-3.358 7.5-7.5v-29.17c0-14.084 5.863-23.184 14.938-23.184 3.382 0 5.895.893 7.683 2.731 3.2 3.29 4.756 9.929 4.5 19.197-.002.069-.003.138-.003.208v29.931c0 4.142 3.358 7.5 7.5 7.5s7.5-3.358 7.5-7.5v-29.831c.357-13.549-2.585-23.63-8.746-29.964z" fill="#678d98"/></g></svg>